<?xml version='1.0' encoding='utf-8'?>
<svg xmlns="http://www.w3.org/2000/svg" version="1.1" width="167px" height="202px" viewBox="-0.75 -1.7 166.8 202.35"><g><path fill="#0d131a" d="M31.8 66.25 Q34.85 62.6 37.85 64.0 41.0 65.45 42.7 71.5 44.3 77.25 43.35 82.4 43.0 84.5 42.7 101.1 42.35 130.15 42.0 137.2 40.9 158.8 37.4 166.2 31.3 178.95 18.9 178.95 L9.05 178.35 Q2.3 177.1 0.55 173.35 -0.75 170.55 1.1 165.65 3.0 160.7 7.5 155.35 13.75 147.9 18.55 128.35 21.3 117.2 25.15 93.35 27.05 81.7 28.5 75.55 30.2 68.2 31.8 66.25"/><path fill="#5dc1cf" d="M37.1 65.7 Q39.45 66.8 40.9 72.1 42.35 77.45 41.55 82.05 41.05 84.95 40.85 101.05 40.55 124.35 39.75 136.25 38.4 156.9 34.9 164.2 31.95 170.35 28.8 173.15 24.95 176.55 19.3 176.55 L10.7 175.95 Q4.7 174.85 3.3 171.8 1.15 167.15 9.1 157.8 15.6 150.1 20.6 129.65 23.5 117.9 27.45 93.65 29.5 81.15 30.45 76.6 32.0 68.95 33.25 67.4 35.35 64.9 37.1 65.7"/><path fill="#50a8b4" d="M27.45 93.65 Q29.5 81.15 30.45 76.6 32.0 68.95 33.25 67.4 35.35 64.9 37.1 65.7 39.45 66.8 40.9 72.1 42.35 77.45 41.55 82.05 41.05 84.95 40.85 101.05 L40.35 123.7 Q39.9 137.55 38.8 146.7 L31.55 123.4 Q27.2 109.75 24.8 109.4 L27.45 93.65"/><path fill="#0d131a" d="M163.45 99.8 Q166.05 106.4 165.3 115.9 164.35 128.15 158.25 140.1 151.55 153.25 140.6 161.8 125.9 173.4 114.7 176.85 108.9 178.65 100.25 178.45 L97.6 178.4 101.35 165.65 102.0 165.6 Q110.95 165.1 116.95 161.45 122.95 157.85 128.0 149.9 130.2 146.45 131.95 139.65 133.3 134.4 134.7 125.65 137.7 106.6 141.95 98.8 146.45 90.65 154.05 91.55 160.45 92.3 163.45 99.8"/><path fill="#595757" d="M154.65 94.65 Q160.7 96.0 162.5 105.1 165.05 117.35 158.4 133.9 151.4 151.25 139.05 160.35 123.0 172.15 113.1 175.3 108.35 176.8 100.3 176.55 L100.1 176.55 102.8 167.4 Q111.85 166.75 118.15 162.9 124.45 159.05 129.6 150.95 131.85 147.4 133.75 140.25 L136.85 125.95 Q139.55 112.1 141.05 107.2 143.85 98.05 147.9 95.45 149.15 94.65 151.1 94.45 L154.65 94.65"/><path fill="#3e3a39" d="M148.85 95.0 Q151.55 93.9 154.65 94.65 160.7 96.0 162.5 105.1 165.05 117.35 158.4 133.9 151.4 151.25 139.05 160.35 123.0 172.15 113.1 175.3 108.35 176.8 100.3 176.55 L100.1 176.55 Q100.2 176.25 104.65 175.9 109.75 175.5 111.55 174.9 125.8 170.25 137.5 158.0 147.95 147.0 153.75 133.0 159.3 119.5 158.2 109.0 157.05 97.85 148.85 95.0"/><path fill="#0d131a" d="M44.45 160.05 Q48.8 153.5 55.1 153.1 60.05 152.7 64.3 156.5 67.5 159.3 69.45 163.8 71.45 168.25 71.75 173.35 72.3 181.95 68.4 187.9 64.5 193.85 58.05 194.2 49.55 194.75 44.85 188.8 40.9 183.75 40.5 175.5 40.1 166.65 44.45 160.05"/><path fill="#5dc1cf" d="M67.8 164.6 Q69.6 168.7 69.9 173.45 70.4 181.35 67.35 186.45 64.25 191.65 58.65 192.0 55.7 192.2 52.95 191.4 50.25 190.6 48.4 189.0 43.4 184.55 43.0 175.2 42.65 167.05 46.2 161.15 49.75 155.3 55.25 154.95 59.4 154.65 63.1 157.9 66.0 160.45 67.8 164.6"/><path fill="#50a8b4" d="M63.1 157.9 Q66.0 160.45 67.8 164.6 69.6 168.7 69.9 173.45 70.3 180.0 68.2 184.75 66.05 189.5 62.0 191.2 60.85 184.4 54.15 179.5 48.6 175.4 43.0 174.75 42.75 166.75 46.3 161.0 49.8 155.3 55.25 154.95 59.4 154.65 63.1 157.9"/><path fill="#0d131a" d="M70.3 192.75 Q65.05 187.55 65.05 178.3 65.05 168.25 69.25 162.25 73.25 156.5 79.95 156.1 85.1 155.8 89.45 159.55 92.75 162.35 94.8 166.85 96.85 171.3 97.15 176.4 97.7 185.05 93.8 190.95 89.85 196.85 83.2 197.25 75.3 197.75 70.3 192.75"/><path fill="#5dc1cf" d="M73.0 192.05 Q67.9 187.65 67.4 178.25 67.05 170.05 70.7 164.2 74.35 158.35 80.05 158.0 84.35 157.7 88.2 160.95 91.2 163.5 93.1 167.65 94.95 171.8 95.25 176.5 95.75 184.4 92.6 189.5 89.35 194.7 83.6 195.05 L77.7 194.45 Q74.85 193.65 73.0 192.05"/><path fill="#50a8b4" d="M78.5 182.0 Q72.7 178.5 67.4 177.8 67.15 169.75 70.8 164.05 74.45 158.35 80.05 158.0 84.35 157.7 88.2 160.95 91.2 163.5 93.1 167.65 94.95 171.8 95.25 176.5 95.65 183.05 93.45 187.8 91.25 192.55 87.05 194.25 86.85 187.05 78.5 182.0"/><path fill="#0d131a" d="M146.75 97.75 Q149.5 96.0 152.35 96.75 156.25 97.85 158.25 102.85 160.2 107.8 159.2 114.0 158.55 117.8 156.85 120.75 155.2 123.75 152.85 125.25 150.1 127.0 147.25 126.25 143.35 125.15 141.35 120.2 139.4 115.2 140.4 109.0 141.05 105.2 142.7 102.25 144.4 99.25 146.75 97.75"/><path fill="#ffffff" d="M151.85 98.05 Q154.95 98.9 156.6 103.4 158.2 107.85 157.35 113.2 156.8 116.55 155.3 119.25 153.85 121.95 151.85 123.2 149.8 124.5 147.75 123.95 144.65 123.1 143.0 118.6 141.4 114.15 142.25 108.85 142.8 105.45 144.3 102.8 145.75 100.1 147.75 98.8 149.8 97.5 151.85 98.05"/><path fill="#0d131a" d="M147.8 110.25 Q147.9 109.55 148.3 109.15 148.7 108.7 149.15 108.75 L149.8 109.4 149.9 110.6 149.35 111.75 Q148.95 112.2 148.55 112.1 148.1 112.05 147.9 111.5 147.7 110.95 147.8 110.25"/><path fill="#0d131a" d="M56.0 127.35 Q62.15 124.85 71.35 124.75 79.65 124.6 86.3 126.3 94.7 128.5 100.15 142.5 103.2 150.3 106.2 165.6 L107.15 170.5 Q107.9 173.55 106.55 174.8 105.6 175.75 103.6 175.65 L99.4 174.9 96.15 174.2 Q94.95 174.0 93.4 175.45 L90.4 178.45 86.4 182.1 Q84.05 183.8 82.15 183.25 81.45 183.0 79.7 181.65 L75.75 178.25 73.3 175.9 Q71.9 174.55 71.45 174.55 71.1 174.7 66.9 176.95 L62.05 179.6 Q59.55 180.6 57.8 179.55 55.85 178.4 54.0 176.0 L51.5 172.5 Q50.05 170.45 48.15 170.2 L42.05 171.5 Q36.6 172.9 34.65 173.7 31.65 175.0 31.15 174.75 30.35 174.35 30.8 170.55 32.05 160.4 40.65 145.35 49.45 129.95 56.0 127.35"/><path fill="#5dc1cf" d="M71.3 126.6 Q79.5 126.5 85.85 128.15 93.5 130.15 98.65 143.65 101.5 151.25 104.35 165.95 L105.35 170.9 Q105.8 172.85 105.25 173.5 L103.1 173.75 99.85 173.1 96.4 172.35 Q94.55 172.1 92.4 173.55 91.1 174.45 88.65 176.9 L85.5 179.7 Q83.8 180.85 82.6 180.5 81.7 180.25 76.95 176.05 L72.7 172.75 Q71.6 172.15 70.85 172.4 68.55 173.2 66.35 174.45 L62.1 176.8 Q59.8 177.8 58.75 177.0 56.1 175.0 53.25 170.95 L51.45 169.0 Q50.55 168.35 49.1 168.15 48.05 168.05 41.95 169.3 35.75 170.6 33.75 171.45 L33.65 171.5 33.55 170.8 Q33.55 169.2 34.45 166.2 37.4 156.3 44.4 144.15 51.9 131.0 56.7 129.05 62.45 126.75 71.3 126.6"/><path fill="#50a8b4" d="M76.4 133.2 Q72.55 132.0 77.6 129.65 82.65 127.3 85.85 128.15 93.5 130.15 98.65 143.65 101.5 151.25 104.35 165.95 L105.35 170.9 Q105.8 172.85 105.25 173.5 L103.1 173.75 99.85 173.1 96.4 172.35 Q94.55 172.1 92.4 173.55 91.1 174.45 88.65 176.9 L86.9 178.55 Q89.35 166.3 85.0 149.95 80.9 134.6 76.4 133.2"/><path fill="#5dc1cf" d="M91.5 42.35 Q109.7 49.75 117.35 67.9 125.0 86.0 117.6 104.15 113.65 113.7 105.95 120.95 98.45 127.9 89.45 130.9 82.1 133.3 70.65 132.75 L60.65 131.75 55.7 130.0 Q36.15 122.05 28.35 105.75 20.15 88.6 28.35 68.5 35.75 50.35 54.55 42.6 73.3 34.9 91.5 42.35"/><path fill="#50a8b4" d="M119.45 74.0 Q121.45 81.4 121.0 88.95 120.6 96.8 117.6 104.15 113.65 113.7 105.95 120.95 98.45 127.9 89.45 130.9 L81.75 133.25 Q76.25 134.45 71.65 133.35 69.8 132.9 70.4 132.6 L73.95 131.55 Q82.75 128.95 89.6 123.5 96.8 117.85 105.15 106.9 118.35 89.45 119.45 74.0"/><path fill="#0d131a" d="M91.7 41.5 Q110.35 49.1 118.45 67.35 126.6 85.75 119.1 104.1 115.4 113.2 106.5 121.25 98.3 128.65 89.75 131.75 86.2 133.1 86.0 132.15 85.85 131.25 89.15 130.0 95.15 127.7 102.8 120.5 111.25 112.6 115.55 104.3 124.1 87.9 116.55 69.2 109.05 50.5 91.15 43.2 73.35 35.95 55.0 43.65 36.65 51.3 29.35 69.1 21.05 89.45 30.15 107.15 39.2 124.7 60.9 131.05 62.05 131.4 62.05 132.25 62.1 133.05 60.35 132.65 38.85 127.1 28.7 109.3 17.9 90.4 26.95 68.2 34.65 49.4 54.95 41.75 74.3 34.4 91.7 41.5"/><path fill="#0d131a" d="M39.2 65.8 Q38.85 66.05 38.2 65.25 37.55 64.45 37.9 64.2 L41.1 61.45 45.65 57.95 49.7 58.05 Q51.6 60.5 55.25 68.75 55.45 69.1 54.65 69.7 53.8 70.25 53.55 69.9 L51.05 65.3 47.9 60.05 Q47.4 59.6 43.25 62.65 L39.2 65.8"/><path fill="#5dc1cf" d="M118.45 82.2 Q119.05 84.85 118.3 97.9 L116.7 125.1 Q114.8 164.1 119.8 174.25 126.05 187.05 123.7 191.45 121.75 195.15 108.85 198.7 103.85 200.1 100.7 196.75 97.85 193.75 93.4 183.25 90.1 175.45 96.35 134.25 L104.3 87.65 Q105.4 80.55 111.25 78.15 L115.65 78.05 Q117.8 79.1 118.45 82.2"/><path fill="#50a8b4" d="M104.3 87.65 L104.55 85.65 Q104.7 84.5 105.25 84.45 105.95 84.35 106.4 85.7 106.95 87.15 106.75 89.75 106.05 101.05 103.65 118.05 L99.7 145.5 Q95.65 175.85 100.5 184.4 104.2 191.0 106.15 195.5 106.65 196.6 108.85 198.7 103.85 200.1 100.7 196.75 97.85 193.75 93.4 183.25 90.1 175.45 96.35 134.25 L104.3 87.65"/><path fill="#0d131a" d="M117.55 82.3 Q117.6 79.7 118.55 79.75 119.45 79.85 119.4 82.15 L119.35 94.8 Q119.2 106.8 118.7 114.8 117.3 137.0 117.45 148.65 117.75 166.35 121.25 173.5 124.65 180.4 125.55 184.75 126.4 188.9 125.15 191.6 122.65 197.2 109.1 199.6 103.3 200.65 99.2 196.45 95.65 192.75 92.0 183.3 88.9 175.05 94.7 137.05 L103.4 87.45 Q103.95 84.35 104.8 84.65 105.6 85.0 105.25 87.85 101.1 110.35 97.9 132.05 91.5 175.0 94.7 182.45 99.0 192.6 101.9 195.4 104.55 197.95 109.2 197.0 114.95 195.75 117.95 194.45 121.45 192.9 122.45 190.75 123.5 188.45 122.8 184.85 122.0 180.85 118.95 174.65 115.35 167.3 115.2 149.1 115.1 138.4 116.6 114.7 L117.35 95.05 117.55 82.3"/><path fill="#922f00" d="M82.3 88.8 L91.75 86.8 Q89.6 100.75 79.85 112.45 69.05 125.4 57.2 123.75 42.55 121.7 37.05 107.2 31.55 92.65 38.15 72.75 L43.9 80.15 53.05 75.5 59.6 84.25 72.75 80.0 82.3 88.8"/><path fill="#0d131a" d="M90.65 87.2 L92.45 87.5 Q90.25 101.6 80.4 113.3 69.4 126.4 57.05 124.65 44.65 122.9 38.4 112.85 33.9 105.65 33.55 94.9 33.15 84.05 37.1 74.0 38.1 71.55 38.9 72.0 39.75 72.45 38.9 74.6 34.9 84.5 35.3 94.85 35.7 104.9 40.0 111.85 45.85 121.2 57.3 122.8 68.9 124.45 79.25 111.9 88.55 100.7 90.65 87.2"/><path fill="#0d131a" d="M90.0 95.3 L90.4 95.7 90.2 96.25 Q85.6 109.05 77.0 117.4 67.45 126.7 57.3 125.5 46.95 124.3 40.55 116.2 34.25 108.3 33.65 96.35 L33.65 95.95 33.95 95.65 Q45.0 85.1 63.35 85.35 81.15 85.55 90.0 95.3"/><path fill="#ed8599" d="M65.35 87.55 Q72.65 87.8 78.8 90.25 84.6 92.5 88.2 96.2 83.8 108.1 75.65 115.7 66.65 124.1 57.3 122.8 47.75 121.45 42.0 114.55 36.25 107.6 35.6 96.7 40.35 92.4 48.3 89.85 56.6 87.2 65.35 87.55"/><path fill="#0d131a" d="M86.9 88.5 L82.0 89.6 77.75 85.45 73.5 81.15 Q73.0 80.85 66.4 83.0 L59.3 85.15 Q58.9 85.1 55.85 80.85 L52.65 76.55 Q52.5 76.5 48.1 78.9 43.75 81.25 43.3 81.1 42.85 80.95 40.65 77.2 L38.25 73.2 Q38.0 72.95 35.25 74.25 L31.4 76.05 Q30.3 76.4 30.25 75.75 30.25 75.1 31.0 74.55 31.95 73.9 34.85 72.6 38.1 71.2 38.8 71.35 39.4 71.5 41.7 75.2 L44.1 78.9 48.5 76.75 Q52.7 74.65 53.05 74.75 53.4 74.85 56.6 78.8 L60.0 82.85 66.8 80.9 Q73.45 78.9 74.0 79.05 74.55 79.15 78.45 83.3 L82.6 87.55 87.45 86.35 Q92.0 85.1 92.5 85.4 93.15 85.85 94.8 88.8 96.5 91.75 96.75 92.95 97.05 94.2 96.8 94.65 96.5 95.05 95.75 94.2 L93.5 90.55 91.65 87.5 86.9 88.5"/><path fill="#0d131a" d="M84.3 65.35 Q85.1 64.9 86.05 65.0 87.15 65.15 87.8 65.95 L97.7 79.8 Q97.9 80.15 97.0 80.7 L95.9 80.8 91.05 74.8 85.6 68.5 Q85.15 68.2 79.7 71.5 L74.4 74.8 Q74.05 75.05 73.45 74.2 72.9 73.35 73.25 73.1 L84.3 65.35"/><path fill="#5dc1cf" d="M82.5 32.2 Q87.9 40.05 89.85 45.45 88.3 50.25 82.95 53.2 72.2 59.05 53.15 49.65 43.55 44.9 36.35 37.8 29.4 30.95 26.6 23.8 23.75 16.4 26.3 10.85 29.05 4.8 37.7 2.3 51.25 -1.65 69.55 16.6 76.6 23.6 82.5 32.2"/><path fill="#50a8b4" d="M38.35 39.65 Q32.7 34.4 29.65 28.45 37.1 37.6 54.25 44.85 63.8 48.85 75.2 51.8 83.3 53.8 74.65 55.35 71.6 55.95 65.9 54.5 59.8 52.95 53.15 49.65 44.55 45.4 38.35 39.65"/><path fill="#0d131a" d="M90.7 45.15 Q91.65 47.2 90.7 47.45 89.75 47.65 88.95 45.75 85.45 37.55 74.25 24.4 60.2 7.9 48.55 3.85 39.95 0.85 33.55 4.75 27.6 8.35 27.1 15.15 26.4 24.6 34.75 34.6 42.5 43.95 53.6 48.85 58.65 51.05 57.15 51.4 55.6 51.7 52.7 50.45 41.05 45.6 32.7 36.05 23.3 25.35 24.5 14.9 25.35 7.2 31.3 3.0 37.95 -1.7 47.65 0.9 59.4 4.05 73.8 20.5 85.55 33.95 90.7 45.15"/></g></svg>